<?xml version="1.0" standalone="no"?><!DOCTYPE svg PUBLIC "-//W3C//DTD SVG 1.1//EN" "http://www.w3.org/Graphics/SVG/1.1/DTD/svg11.dtd"><svg t="1703834429937" class="icon" viewBox="0 0 1024 1024" version="1.1" xmlns="http://www.w3.org/2000/svg" p-id="6070" xmlns:xlink="http://www.w3.org/1999/xlink" width="48" height="48"><path d="M523.52 965.12a448 448 0 1 1 448-448 448 448 0 0 1-448 448z m0-832a384 384 0 1 0 384 384 384 384 0 0 0-384-384z" p-id="6071"></path><path d="M434.56 684.16a51.84 51.84 0 0 1-36.8-15.04l-96-96a32 32 0 1 1 45.12-45.12l86.4 86.4 265.28-262.4a32 32 0 1 1 45.44 45.44l-272.96 272.64a50.56 50.56 0 0 1-36.48 14.08z" p-id="6072"></path></svg>